REM MD5 7c10931a2dc871f144dd39982bb68bcb
FILE "Official U.S. PlayStation Magazine Demo Disc 18 (USA).bin" BINARY
  TRACK 01 MODE2/2352
    INDEX 01 00:00:00
  TRACK 02 AUDIO
    INDEX 00 37:29:67
    INDEX 01 37:31:67
  TRACK 03 AUDIO
    INDEX 00 39:26:39
    INDEX 01 39:28:39
  TRACK 04 AUDIO
    INDEX 00 40:26:41
    INDEX 01 40:28:41
  TRACK 05 AUDIO
    INDEX 00 41:00:42
    INDEX 01 41:02:42
  TRACK 06 AUDIO
    INDEX 00 42:38:06
    INDEX 01 42:40:06
REM LEADOUT 42:46:02
